<svg version="1.1" id="Layer_1" xmlns="http://www.w3.org/2000/svg" xmlns:xlink="http://www.w3.org/1999/xlink" x="0px" y="0px"
	 width="100%" viewBox="0 0 842 598" enable-background="new 0 0 842 598" xml:space="preserve">
<path fill="#EE2744" opacity="1.000000" stroke="none" 
	d="
M613.210388,312.292297 
	C610.484375,313.363770 609.742432,314.514343 610.979553,317.256775 
	C620.087341,337.446320 629.027100,357.711853 637.965454,377.977417 
	C638.583313,379.378265 638.764404,380.971832 639.232300,382.803436 
	C626.345337,382.803436 614.051331,382.803436 601.391479,382.803436 
	C596.987183,372.685638 592.441956,362.445923 588.067566,352.133759 
	C584.258911,343.155457 580.712646,334.065338 576.845276,325.113220 
	C576.413452,324.113678 574.672424,323.164398 573.487610,323.097900 
	C569.200134,322.857208 564.890930,323.003143 560.073975,323.003143 
	C560.073975,343.065643 560.073975,362.782410 560.073975,382.745728 
	C547.957581,382.745728 536.360107,382.745728 524.380493,382.745728 
	C524.380493,328.110626 524.380493,273.416473 524.380493,218.274384 
	C525.626770,218.191055 527.054443,218.013840 528.482239,218.012482 
	C547.802246,217.994202 567.131775,217.630005 586.438904,218.128540 
	C599.659363,218.469910 611.973572,222.552124 621.540039,232.175003 
	C629.696411,240.379456 633.454285,250.823730 633.936768,262.282654 
	C634.324036,271.482605 634.233582,280.653351 631.061768,289.587555 
	C627.676392,299.123016 621.537598,306.279114 613.210388,312.292297 
M592.478516,250.983994 
	C591.139832,250.057159 589.922607,248.796387 588.442627,248.257980 
	C579.218872,244.902496 569.699585,246.212494 560.394897,246.027878 
	C560.394897,262.761597 560.394897,278.801025 560.394897,294.998413 
	C566.941711,294.998413 573.139526,295.465912 579.235413,294.877502 
	C586.499695,294.176361 592.822510,291.274078 596.003052,283.945160 
	C600.931458,272.588562 600.099915,261.763550 592.478516,250.983994 
z"/>
<path fill="#EE2744" opacity="1.000000" stroke="none" 
	d="
M199.999252,331.114441 
	C202.047394,344.525757 199.829803,356.592651 192.183136,367.416809 
	C185.482666,376.901520 175.750336,381.630646 164.764420,383.910706 
	C143.050735,388.417206 122.556679,385.485535 105.046776,371.231049 
	C95.840561,363.736450 90.388123,353.337128 88.995583,341.207062 
	C88.627441,338.000275 88.193504,334.801086 87.747330,331.261658 
	C100.116600,331.261658 111.848183,331.261658 123.472260,331.261658 
	C124.001877,334.906219 124.462639,338.290558 124.990074,341.664429 
	C126.317932,350.158600 131.711716,354.908905 139.689011,356.741028 
	C143.474594,357.610443 147.650574,358.335815 151.370850,357.638611 
	C162.020752,355.642792 167.311829,344.723175 164.422134,333.724884 
	C161.880569,324.051514 154.045593,320.532776 146.411285,317.139435 
	C133.287094,311.305847 119.989990,305.832245 108.648911,296.849976 
	C99.116989,289.300568 93.518242,279.618378 92.844421,266.960144 
	C92.253044,255.850693 93.745087,245.576538 100.168854,236.363800 
	C107.572113,225.746262 118.223244,219.463455 130.522400,217.252182 
	C144.629730,214.715805 158.831360,214.669846 172.627502,220.726669 
	C186.631897,226.874924 194.711182,237.575394 198.890411,251.650818 
	C200.300369,256.399506 200.580933,261.483521 201.471115,266.992615 
	C189.758163,266.992615 178.967010,266.986572 168.175842,266.995972 
	C164.517136,266.999146 165.055496,264.354309 164.996979,262.051941 
	C164.785080,253.714645 159.518463,246.636566 151.888977,244.414734 
	C145.027893,242.416641 135.614899,244.739304 131.945496,249.636276 
	C127.927696,254.998199 125.661133,264.299316 130.137848,269.854919 
	C133.253815,273.721771 137.238205,277.356354 141.593018,279.662842 
	C151.511383,284.916077 162.064423,288.962311 172.045807,294.107666 
	C182.541397,299.518066 191.936478,306.464478 196.452637,318.032806 
	C198.035995,322.088654 198.839081,326.449127 199.999252,331.114441 
z"/>
<path fill="#EE2744" opacity="1.000000" stroke="none" 
	d="
M222.955887,218.897064 
	C224.660202,218.598022 226.363708,218.044449 228.068970,218.038971 
	C247.212067,217.977402 266.358002,217.802063 285.498108,218.048431 
	C311.777649,218.386688 333.072266,237.279861 336.177521,263.857056 
	C337.697205,276.863983 336.221252,288.908752 330.186401,300.437042 
	C323.258881,313.670624 312.042297,321.572357 297.644653,323.785309 
	C284.823914,325.755859 271.725372,325.919037 258.185455,326.921631 
	C258.185455,344.955750 258.185455,363.665558 258.185455,382.972107 
	C246.427795,382.972107 235.173920,382.972107 223.458313,382.445587 
	C222.983032,327.578400 222.969467,273.237732 222.955887,218.897064 
M266.541168,246.000000 
	C263.782654,246.000000 261.024139,246.000000 258.342285,246.000000 
	C258.342285,263.358185 258.342285,280.045258 258.342285,297.000214 
	C266.308136,297.000214 273.941193,296.788177 281.557068,297.059387 
	C289.299957,297.335022 297.036743,291.192810 299.189026,284.207031 
	C301.453857,276.855988 301.677673,269.615509 299.625519,262.489868 
	C297.514160,255.158707 294.109314,248.200607 285.250763,247.089035 
	C279.389648,246.353622 273.438202,246.337906 266.541168,246.000000 
z"/>
<path fill="#EE2744" opacity="1.000000" stroke="none" 
	d="
M657.000000,257.000000 
	C657.000000,243.864853 657.000000,231.229691 657.000000,218.298904 
	C689.746277,218.298904 722.132141,218.298904 754.759277,218.298904 
	C754.759277,227.409775 754.759277,236.345398 754.759277,245.820938 
	C734.044434,245.820938 713.319092,245.820938 692.299683,245.820938 
	C692.299683,259.076691 692.299683,271.796539 692.299683,284.879211 
	C710.074402,284.879211 727.679321,284.879211 745.640442,284.879211 
	C745.640442,293.952393 745.640442,302.673798 745.640442,311.937744 
	C727.926453,311.937744 710.199890,311.937744 692.241150,311.937744 
	C692.241150,326.408447 692.241150,340.344116 692.241150,354.823425 
	C713.285339,354.823425 734.343262,354.823425 755.696716,354.823425 
	C755.696716,364.415741 755.696716,373.468231 755.696716,382.761414 
	C722.915283,382.761414 690.314026,382.761414 657.000000,382.761414 
	C657.000000,341.004944 657.000000,299.252472 657.000000,257.000000 
z"/>
<path fill="#F6F6F6" opacity="1.000000" stroke="none" 
	d="
M173.000000,398.000122 
	C368.283691,398.000122 563.067383,398.000122 757.851074,398.000122 
	C758.850830,398.000122 759.867310,398.118042 760.847351,397.979126 
	C764.480408,397.464172 766.640930,400.167389 766.515503,402.606750 
	C766.419067,404.483215 763.408020,406.377075 761.416382,407.901764 
	C760.679749,408.465729 759.153137,408.000061 757.986755,408.000061 
	C539.375793,408.000397 320.764832,408.000397 102.153893,408.000366 
	C101.154144,408.000366 100.154343,408.006866 99.154663,407.998169 
	C95.639114,407.967590 93.295517,405.789246 93.442772,402.724060 
	C93.585144,399.760803 95.817238,397.901825 99.518982,397.924255 
	C123.845245,398.071503 148.172836,398.000153 173.000000,398.000122 
z"/>
<path fill="#FFFEFA" opacity="1.000000" stroke="none" 
	d="
M364.964661,266.003845 
	C378.256409,259.662018 386.348083,249.263016 391.051483,235.913193 
	C392.147400,232.802673 394.445801,231.833740 397.692413,232.892319 
	C403.166138,234.677048 408.658264,236.421722 414.201416,237.973312 
	C424.509064,240.858582 434.030029,237.384171 443.417633,233.838364 
	C449.648346,231.484955 450.813873,231.743607 453.270233,237.661850 
	C459.595734,252.902451 470.159515,263.722839 486.024536,269.041046 
	C489.198853,270.105133 489.584564,273.069702 489.011047,275.591553 
	C487.236755,283.393005 483.342499,291.118286 483.437653,298.834106 
	C483.551636,308.077942 486.929596,317.281494 489.075531,327.354340 
	C489.379303,326.820831 489.091675,327.554199 488.609528,328.122498 
	C487.754364,329.130432 486.938721,330.320068 485.830353,330.939636 
	C480.663788,333.827728 475.186707,336.210785 470.223419,339.401001 
	C461.691467,344.884918 457.361145,353.747498 453.188446,362.523865 
	C450.714691,367.726959 449.218384,368.232117 443.707214,366.416779 
	C437.030518,364.217468 430.102112,361.361786 423.288879,361.378296 
	C415.770294,361.396484 408.113373,363.881958 400.788788,366.165527 
	C394.579010,368.101532 393.043121,368.010895 390.591919,362.090149 
	C384.335327,346.977814 373.793060,336.347137 358.182220,330.987549 
	C354.743958,329.807129 354.081573,327.278595 354.990997,324.113129 
	C356.624390,318.427765 358.362427,312.772400 359.993134,307.086273 
	C362.761688,297.432556 359.534302,288.519073 356.214905,279.750458 
	C353.456787,272.464508 353.689453,271.268280 360.709320,268.015778 
	C362.023376,267.406952 363.292114,266.700348 364.964661,266.003845 
M436.284637,290.966156 
	C451.437805,284.512238 466.590973,278.058289 482.695343,271.199219 
	C467.413696,264.664764 456.912689,254.437271 450.659607,239.176270 
	C443.020782,257.641785 435.804291,275.086365 428.587799,292.530945 
	C428.966278,292.769745 429.344727,293.008545 429.723175,293.247375 
	C431.642670,292.498322 433.562134,291.749268 436.284637,290.966156 
M405.960754,330.408234 
	C409.099640,322.807709 412.238495,315.207214 415.377350,307.606720 
	C415.030090,307.256927 414.682800,306.907166 414.335510,306.557373 
	C396.961243,313.816010 379.586945,321.074615 361.223083,328.746674 
	C376.541962,335.239471 387.135956,345.411896 393.326874,361.105865 
	C397.698547,350.268311 401.578735,340.649170 405.960754,330.408234 
M393.625000,240.175629 
	C392.768921,241.322662 391.679504,242.362381 391.094574,243.634140 
	C387.280273,251.927032 381.913116,258.964447 374.322327,264.088928 
	C370.386841,266.745789 366.146149,268.950531 361.755798,271.528320 
	C379.655792,278.955353 397.103516,286.194763 414.551270,293.434143 
	C414.819794,293.034576 415.088287,292.635010 415.356812,292.235413 
	C408.231201,275.105957 401.105621,257.976471 393.625000,240.175629 
M439.962769,334.605774 
	C443.384155,343.006165 446.805511,351.406586 450.110931,359.522217 
	C454.692261,353.163147 458.339172,346.489777 463.517609,341.363647 
	C468.759521,336.174713 475.516724,332.516571 481.597900,328.196625 
	C464.307709,321.027435 446.887054,313.804169 429.466400,306.580902 
	C429.211731,306.990601 428.957062,307.400299 428.702362,307.809998 
	C432.291016,316.532227 435.879639,325.254425 439.962769,334.605774 
M412.544464,331.968414 
	C408.240173,342.162170 403.935883,352.355927 399.300293,363.334290 
	C414.949402,357.099426 429.397125,357.352142 444.640594,363.166595 
	C436.887421,344.500397 429.505188,326.727325 421.876068,308.359863 
	C418.644409,316.677155 415.805389,323.983856 412.544464,331.968414 
M399.391846,305.962921 
	C403.666504,304.081635 407.941162,302.200348 413.192017,299.889435 
	C394.516022,292.187134 376.968292,284.950165 358.625458,277.385284 
	C365.001709,292.972168 364.556183,307.399506 358.886383,322.594299 
	C372.668976,316.848480 385.634033,311.443512 399.391846,305.962921 
M423.038757,288.587616 
	C430.131592,271.567108 437.224426,254.546616 444.629242,236.777466 
	C429.161194,242.763474 414.735382,242.777832 400.098907,237.045181 
	C400.176208,237.819626 400.118958,238.296219 400.277649,238.684586 
	C406.992432,255.116928 413.706329,271.549774 420.527435,287.937988 
	C420.817566,288.635010 422.123077,288.909393 423.038757,288.587616 
M451.025482,308.534393 
	C462.185547,313.089569 473.345612,317.644775 485.450409,322.585571 
	C478.750977,307.187653 478.588318,292.763428 485.581726,277.261292 
	C466.883240,284.999023 449.343903,292.257080 430.617523,300.006348 
	C438.066895,303.031250 444.232513,305.534851 451.025482,308.534393 
z"/>
<path fill="#F6F6F6" opacity="1.000000" stroke="none" 
	d="
M373.999390,421.153381 
	C373.999390,430.601349 373.999390,439.566345 373.999390,448.763672 
	C371.616791,448.763672 369.547791,448.763672 367.124146,448.763672 
	C367.124146,443.640594 367.124146,438.555298 367.124146,433.469971 
	C366.870087,433.429016 366.616028,433.388031 366.361969,433.347076 
	C365.240967,437.281952 364.300751,441.282440 362.907928,445.118652 
	C362.368774,446.603668 360.804657,447.716583 359.707520,448.999054 
	C358.364716,447.760132 356.434753,446.765198 355.798065,445.232880 
	C354.354401,441.758636 353.547638,438.019745 352.049255,434.462921 
	C352.049255,439.085052 352.049255,443.707184 352.049255,448.663879 
	C349.791260,448.663879 347.720306,448.663879 345.321594,448.663879 
	C345.321594,438.504517 345.321594,428.089783 345.321594,417.336334 
	C347.862457,417.336334 350.596497,417.336334 353.808807,417.336334 
	C355.607819,423.934082 357.484741,430.817413 359.456543,438.048798 
	C361.041321,431.875183 362.841309,426.173004 363.864532,420.334686 
	C364.390533,417.333160 365.731537,416.867432 368.168030,416.984741 
	C369.829620,417.064728 371.498169,417.000061 373.631927,417.000061 
	C373.755035,418.229675 373.877228,419.450043 373.999390,421.153381 
z"/>
<path fill="#F6F6F6" opacity="1.000000" stroke="none" 
	d="
M581.000671,426.908295 
	C581.000671,423.464539 581.000671,420.496796 581.000671,417.268005 
	C583.321838,417.268005 585.389282,417.268005 587.731567,417.268005 
	C587.731567,427.608612 587.731567,438.005005 587.731567,448.706940 
	C583.229492,449.594513 579.837036,449.501160 578.617798,443.498077 
	C577.831116,439.624786 575.263794,436.113129 572.958923,431.327606 
	C572.958923,437.891052 572.958923,443.260468 572.958923,448.807068 
	C570.542664,448.807068 568.477844,448.807068 566.206299,448.807068 
	C566.206299,438.237091 566.206299,427.838776 566.206299,417.219849 
	C568.409058,417.219849 570.497559,417.219849 572.711243,417.219849 
	C575.293640,422.942627 577.896423,428.710602 581.000671,435.589752 
	C581.000671,432.111023 581.000671,429.747681 581.000671,426.908295 
z"/>
<path fill="#F6F6F6" opacity="1.000000" stroke="none" 
	d="
M237.221207,417.032715 
	C240.865311,417.002777 244.055878,417.269531 247.186020,416.948059 
	C255.494583,416.094727 259.588409,427.039276 255.868835,431.767548 
	C252.688995,435.809570 253.307510,438.728302 255.712418,442.437958 
	C256.804993,444.123291 257.142853,446.297821 257.821625,448.246399 
	C251.171478,449.948029 251.053787,449.845642 248.365692,443.864838 
	C247.367081,441.643066 246.057465,439.561066 244.889648,437.415344 
	C244.307526,437.632172 243.725388,437.848969 243.143250,438.065796 
	C243.143250,441.594208 243.143250,445.122589 243.143250,448.807495 
	C240.529175,448.807495 238.461426,448.807495 236.740112,448.807495 
	C236.740112,438.093781 236.740112,427.577515 237.221207,417.032715 
M248.937485,430.449493 
	C251.168839,424.615753 249.754654,422.805817 243.177368,423.318695 
	C243.177368,426.070465 243.177368,428.838684 243.177368,432.204071 
	C245.035110,431.752686 246.653931,431.359375 248.937485,430.449493 
z"/>
<path fill="#F6F6F6" opacity="1.000000" stroke="none" 
	d="
M295.000244,428.020142 
	C295.000244,424.211334 295.000244,420.899445 295.000244,416.658630 
	C300.063873,417.090820 305.111115,416.721313 309.622375,418.102448 
	C315.724670,419.970642 318.236420,428.318390 314.096802,433.062897 
	C311.456421,436.089081 312.449036,438.282318 313.458984,440.921143 
	C314.466644,443.553986 315.748840,446.081818 316.989197,448.829620 
	C308.645233,449.192383 308.693634,449.174927 305.964264,441.611359 
	C305.434357,440.142883 304.364136,438.869385 303.543152,437.505981 
	C303.069855,437.718262 302.596527,437.930573 302.123230,438.142883 
	C302.123230,441.570557 302.123230,444.998260 302.123230,448.711304 
	C299.724243,448.711304 297.652374,448.711304 295.000244,448.711304 
	C295.000244,442.060883 295.000244,435.288971 295.000244,428.020142 
M307.323669,423.880096 
	C305.707611,423.498718 304.091522,423.117340 302.282654,422.690460 
	C302.282654,426.167694 302.282654,429.011719 302.282654,431.900848 
	C308.128693,430.802277 308.870941,429.775208 307.323669,423.880096 
z"/>
<path fill="#F6F6F6" opacity="1.000000" stroke="none" 
	d="
M450.934235,448.418335 
	C448.982971,444.565887 447.307495,441.029083 445.632019,437.492249 
	C445.099670,437.722412 444.567322,437.952545 444.034973,438.182678 
	C444.034973,441.626892 444.034973,445.071075 444.034973,448.754486 
	C441.638763,448.754486 439.568298,448.754486 437.246307,448.754486 
	C437.246307,438.328461 437.246307,427.923492 437.246307,417.002136 
	C441.202942,417.002136 445.164734,416.730652 449.075470,417.061890 
	C455.992737,417.647858 459.977142,426.177032 455.892151,432.719177 
	C453.631378,436.339874 454.219177,438.862335 455.949341,442.043030 
	C456.997681,443.970337 457.530273,446.178253 458.468597,448.733948 
	C455.687134,448.733948 453.448578,448.733948 450.934235,448.418335 
M447.492584,431.037079 
	C451.501129,430.022980 450.235901,426.710358 449.564697,424.610107 
	C449.217072,423.522491 446.250793,423.271759 444.000793,422.478302 
	C444.000793,425.708344 443.767212,427.897064 444.132904,429.980621 
	C444.253845,430.669800 445.919098,431.087921 447.492584,431.037079 
z"/>
<path fill="#F6F6F6" opacity="1.000000" stroke="none" 
	d="
M534.810059,447.038330 
	C529.539429,448.003082 524.668701,448.907867 519.322632,449.900970 
	C519.322632,438.374725 519.322632,427.887360 519.322632,417.038300 
	C526.257263,417.503693 534.195984,414.550171 538.387817,422.969635 
	C542.225708,430.678101 540.444092,442.189056 534.810059,447.038330 
M525.999939,437.354370 
	C525.999939,439.146729 525.999939,440.939087 525.999939,442.722443 
	C532.736633,442.847046 533.681091,440.983734 532.999939,429.600250 
	C532.719849,424.919403 530.524780,422.969757 525.999939,423.586731 
	C525.999939,427.836212 525.999939,432.115540 525.999939,437.354370 
z"/>
<path fill="#F6F6F6" opacity="1.000000" stroke="none" 
	d="
M170.999924,425.052521 
	C170.999939,429.537476 170.940643,433.533386 171.021439,437.526459 
	C171.072754,440.063568 170.671143,442.961365 174.673935,443.020844 
	C178.753952,443.081451 177.972122,440.171814 177.985855,437.791565 
	C178.025009,431.002716 177.999603,424.213440 177.999603,417.215271 
	C180.417557,417.215271 182.483780,417.215271 184.996674,417.215271 
	C184.996674,425.597443 185.169952,433.878937 184.926331,442.148132 
	C184.797226,446.530304 180.184189,449.692780 174.650391,449.807495 
	C169.297760,449.918457 164.264420,445.493530 164.065964,439.900513 
	C163.801483,432.447174 164.000626,424.977356 164.000626,417.259064 
	C166.340332,417.259064 168.408981,417.259064 170.999924,417.259064 
	C170.999924,419.676025 170.999924,422.119141 170.999924,425.052521 
z"/>
<path fill="#F6F6F6" opacity="1.000000" stroke="none" 
	d="
M332.999512,421.156921 
	C332.999481,419.555878 332.999481,418.437347 332.999481,417.161346 
	C335.399963,417.161346 337.356903,417.161346 339.988922,417.161346 
	C339.988922,425.632019 340.224487,434.221710 339.883423,442.788452 
	C339.727295,446.710571 334.511414,449.875031 329.543365,449.869019 
	C324.378601,449.862762 319.318115,445.579834 319.088440,440.252106 
	C318.760559,432.647064 319.004944,425.017365 319.004944,417.202118 
	C321.445557,417.202118 323.511444,417.202118 325.999939,417.202118 
	C325.999939,423.797943 325.985992,430.248077 326.011536,436.698029 
	C326.016754,438.016815 325.699707,439.701721 326.371124,440.563171 
	C327.264923,441.709869 328.998657,442.823517 330.338623,442.785675 
	C331.254517,442.759766 332.828644,440.774689 332.878998,439.612274 
	C333.138031,433.630798 332.999359,427.632111 332.999512,421.156921 
z"/>
<path fill="#F6F6F6" opacity="1.000000" stroke="none" 
	d="
M141.155136,444.456635 
	C140.565765,442.246429 140.124054,440.409943 139.599594,438.229492 
	C142.259369,438.229492 144.363800,438.229492 146.468216,438.229492 
	C146.251190,438.604340 146.034149,438.979187 145.817123,439.354034 
	C147.739151,440.561951 149.587997,442.587952 151.601959,442.768127 
	C154.051071,442.987213 155.049759,440.718109 153.120361,438.798065 
	C151.326492,437.012909 149.038147,435.654144 146.805817,434.394135 
	C141.449814,431.371033 139.503754,427.317291 141.233643,422.283569 
	C142.701721,418.011658 147.439651,416.075439 154.157288,417.002197 
	C158.044876,417.538483 160.755554,421.462860 160.791992,426.845184 
	C157.815506,426.825439 154.387772,428.460541 153.030655,423.776001 
	C152.922424,423.402466 150.225082,423.778992 148.730942,423.806946 
	C148.869690,425.077728 148.553253,426.768585 149.250427,427.523926 
	C150.387985,428.756409 152.151398,429.447845 153.713165,430.245361 
	C158.311920,432.593811 161.996063,435.871979 160.807861,441.422546 
	C160.251373,444.022125 158.159073,447.188690 155.876907,448.335754 
	C151.190384,450.691345 146.287201,449.920227 142.363754,445.880188 
	C142.017212,445.523346 141.656784,445.180023 141.155136,444.456635 
z"/>
<path fill="#F6F6F6" opacity="1.000000" stroke="none" 
	d="
M404.076569,420.428040 
	C407.851074,415.774994 413.098846,416.059753 417.092590,417.440033 
	C419.984985,418.439697 421.685577,422.887756 423.435669,426.227173 
	C419.832825,426.700836 416.312195,428.638397 414.784180,423.825470 
	C414.554840,423.103149 411.985657,423.123749 410.245758,422.745667 
	C409.465759,427.065582 411.471527,428.891907 414.754669,430.020020 
	C421.570221,432.361908 423.688782,438.414093 422.853363,442.324310 
	C421.680573,447.813599 417.563049,450.095978 411.225037,449.033905 
	C404.373840,447.885773 401.772583,444.752686 402.360626,438.169373 
	C404.307892,438.169373 406.273682,438.169373 408.653320,438.169373 
	C408.760956,438.918182 408.573578,440.128906 409.083435,440.629639 
	C410.095123,441.623169 411.426971,442.646759 412.749969,442.848511 
	C413.717377,442.996063 415.826050,441.753540 415.779602,441.298676 
	C415.646851,439.998383 414.977386,438.379639 413.967163,437.622498 
	C412.064758,436.196838 409.623230,435.501923 407.677094,434.120972 
	C402.843964,430.691406 401.884125,428.619080 404.076569,420.428040 
z"/>
<path fill="#F6F6F6" opacity="1.000000" stroke="none" 
	d="
M502.997864,424.315399 
	C502.527985,429.963043 498.414337,424.864166 497.089539,427.882568 
	C496.165802,425.889252 495.901642,424.139801 495.080505,423.819916 
	C493.805786,423.323273 492.151794,423.800201 490.658600,423.864441 
	C490.839447,425.140137 490.557953,426.997131 491.290222,427.579529 
	C493.272736,429.156372 495.664459,430.232300 497.932739,431.433441 
	C502.407074,433.802795 504.452118,438.840668 502.966492,443.970581 
	C501.970642,447.409210 497.120667,449.762451 492.353607,449.119995 
	C484.877747,448.112457 484.178162,447.409424 481.965973,438.388672 
	C484.211426,438.388672 486.395752,438.388672 488.688965,438.388672 
	C489.160522,439.367798 489.479065,440.757874 490.334351,441.607788 
	C491.258728,442.526337 492.639832,443.252808 493.911621,443.434692 
	C494.496002,443.518219 495.921356,442.052185 495.867920,441.375519 
	C495.751465,439.901611 495.330994,438.004272 494.308167,437.150848 
	C492.627930,435.748871 490.339417,435.096100 488.363068,434.024658 
	C484.447510,431.901703 481.888702,427.057770 483.194366,423.597412 
	C484.756317,419.458008 487.337891,416.765839 492.462952,416.885040 
	C497.722229,417.007355 501.884186,417.916077 502.997864,424.315399 
z"/>
<path fill="#F6F6F6" opacity="1.000000" stroke="none" 
	d="
M225.935699,417.000153 
	C228.407242,417.000153 230.391571,417.000153 232.765076,417.000153 
	C232.863571,418.907257 232.953461,420.647308 233.064209,422.791656 
	C229.135880,422.791656 225.379639,422.791656 221.312744,422.791656 
	C221.312744,425.243713 221.312744,427.313599 221.312744,429.787079 
	C224.210846,429.787079 227.295731,429.787079 230.761963,429.787079 
	C230.867126,431.898041 230.953979,433.641510 231.061050,435.790833 
	C227.797562,435.790833 224.708679,435.790833 221.310013,435.790833 
	C221.310013,438.235352 221.310013,440.306671 221.310013,442.793701 
	C224.877853,442.793701 228.631302,442.793701 232.759506,442.793701 
	C232.866165,444.910797 232.953995,446.653961 233.057297,448.703979 
	C226.799347,448.703979 220.711014,448.703979 214.309479,448.703979 
	C214.309479,438.425659 214.309479,428.021912 214.309479,417.000153 
	C217.923843,417.000153 221.686172,417.000153 225.935699,417.000153 
z"/>
<path fill="#F6F6F6" opacity="1.000000" stroke="none" 
	d="
M641.748108,430.028564 
	C642.557678,431.870331 642.896851,433.687347 643.324890,435.980408 
	C639.568787,435.980408 636.477356,435.980408 633.203247,435.980408 
	C633.203247,438.443848 633.203247,440.514160 633.203247,442.982605 
	C637.104309,442.982605 640.867310,442.982605 644.803955,442.982605 
	C644.803955,445.116486 644.803955,446.854004 644.803955,448.796082 
	C638.564880,448.796082 632.486389,448.796082 626.204041,448.796082 
	C626.204041,438.203156 626.204041,427.799896 626.204041,417.202606 
	C632.483154,417.202606 638.561584,417.202606 644.805054,417.202606 
	C644.805054,419.143219 644.805054,420.880615 644.805054,423.014709 
	C640.868469,423.014709 637.105835,423.014709 633.182251,423.014709 
	C633.182251,425.361572 633.182251,427.316162 633.182251,430.003815 
	C635.787720,430.003815 638.532715,430.003815 641.748108,430.028564 
z"/>
<path fill="#F6F6F6" opacity="1.000000" stroke="none" 
	d="
M384.629883,448.583862 
	C382.359467,448.935974 380.404907,448.935974 378.227173,448.935974 
	C378.227173,438.308044 378.227173,427.925201 378.227173,416.880524 
	C384.226227,418.007355 390.562775,414.807343 396.102783,419.546478 
	C400.295074,423.132690 400.151947,427.885651 398.736938,432.196167 
	C397.424225,436.194855 393.745667,438.263947 389.208405,438.010712 
	C387.925446,437.939117 386.635132,437.999756 384.945740,437.999756 
	C384.945740,441.662659 384.945740,444.947205 384.629883,448.583862 
M385.003479,430.263519 
	C386.861694,430.758575 388.719940,431.253632 390.578186,431.748718 
	C391.041046,429.483398 392.501373,426.707855 391.678894,425.100067 
	C390.897461,423.572540 387.728424,423.266357 385.000275,422.180847 
	C385.000275,425.451416 385.000275,427.397156 385.003479,430.263519 
z"/>
<path fill="#F6F6F6" opacity="1.000000" stroke="none" 
	d="
M460.999603,434.994629 
	C460.999603,428.854919 460.999603,423.213287 460.999603,417.287170 
	C467.289185,417.287170 473.360168,417.287170 479.716919,417.287170 
	C479.716919,418.970764 479.716919,420.707764 479.716919,422.842896 
	C476.075928,422.842896 472.317963,422.842896 468.283203,422.842896 
	C468.283203,425.296997 468.283203,427.366516 468.283203,429.837524 
	C471.263733,429.837524 474.357391,429.837524 477.718689,429.837524 
	C477.718689,431.954193 477.718689,433.694916 477.718689,435.839539 
	C474.742737,435.839539 471.648743,435.839539 468.282959,435.839539 
	C468.282959,438.292908 468.282959,440.364868 468.282959,442.839844 
	C471.931183,442.839844 475.686829,442.839844 479.717407,442.839844 
	C479.717407,444.968140 479.717407,446.707397 479.717407,448.725739 
	C473.744080,448.725739 467.659485,448.725739 460.999603,448.725739 
	C460.999603,444.359955 460.999603,439.926331 460.999603,434.994629 
z"/>
<path fill="#F6F6F6" opacity="1.000000" stroke="none" 
	d="
M190.351974,448.561340 
	C190.050735,438.034454 190.050735,427.877014 190.050735,417.004028 
	C194.637924,417.004028 199.256927,416.640839 203.791580,417.103729 
	C208.556274,417.590088 211.352982,422.781769 210.999573,429.320557 
	C210.759521,433.761963 206.999146,437.702728 202.640137,437.982239 
	C200.982056,438.088562 199.311447,437.999542 197.258179,437.999542 
	C197.258179,441.477722 197.258179,444.897003 197.258179,448.930786 
	C194.813187,448.930786 192.733200,448.930786 190.351974,448.561340 
M200.108109,423.001282 
	C192.837265,424.151398 199.220169,429.173187 197.428604,432.245941 
	C200.042969,431.695129 202.731445,430.985992 203.655579,429.306213 
	C204.991516,426.877899 203.936798,424.246399 200.108109,423.001282 
z"/>
<path fill="#F6F6F6" opacity="1.000000" stroke="none" 
	d="
M655.764893,424.397766 
	C656.740662,429.064484 657.505005,433.351013 658.441772,438.604492 
	C660.248169,430.843475 661.835449,424.023773 663.421143,417.210999 
	C665.978394,417.210999 668.425720,417.210999 671.311340,417.210999 
	C668.479858,427.231628 665.858704,436.983246 662.829041,446.606232 
	C662.465271,447.761566 659.956726,448.470245 658.314697,448.942474 
	C655.668152,449.703613 654.625488,448.000458 653.986938,445.691956 
	C651.381775,436.273590 648.689514,426.879333 645.956848,417.220032 
	C648.592163,417.220032 651.028503,417.220032 653.673340,417.220032 
	C654.289612,419.448273 654.921509,421.732941 655.764893,424.397766 
z"/>
<path fill="#F6F6F6" opacity="1.000000" stroke="none" 
	d="
M559.965210,431.139099 
	C559.994995,432.907776 559.994995,434.210510 559.994995,435.902893 
	C556.991760,435.902893 554.239197,435.902893 551.246338,435.902893 
	C551.246338,438.361725 551.246338,440.433777 551.246338,442.907440 
	C554.680054,442.907440 558.106140,442.907440 561.759583,442.907440 
	C561.759583,445.038940 561.759583,446.777985 561.759583,448.760254 
	C555.987671,448.760254 550.239014,448.760254 544.243652,448.760254 
	C544.243652,438.284576 544.243652,427.879974 544.243652,417.236877 
	C550.067078,417.236877 555.810425,417.236877 561.777832,417.236877 
	C561.777832,419.072144 561.777832,420.809265 561.777832,422.944977 
	C558.281372,422.944977 554.859497,422.944977 551.223145,422.944977 
	C551.223145,425.404541 551.223145,427.475098 551.223145,429.591400 
	C554.191772,429.959991 557.063599,430.316559 559.965210,431.139099 
z"/>
<path fill="#F6F6F6" opacity="1.000000" stroke="none" 
	d="
M272.251465,417.002075 
	C279.000610,417.000488 285.274719,417.000488 291.771454,417.000488 
	C291.771454,419.053162 291.771454,420.784393 291.771454,422.885040 
	C289.649994,422.885040 287.574646,422.885040 285.142334,422.885040 
	C285.142334,431.630646 285.142334,440.022797 285.142334,448.704712 
	C282.402344,448.704712 280.002228,448.704712 277.070862,448.704712 
	C277.070862,440.340057 277.070862,431.816254 277.070862,423.112061 
	C274.601990,423.112061 272.653229,423.112061 269.230316,423.112061 
	C270.249512,420.666931 271.012970,418.835297 272.251465,417.002075 
z"/>
<path fill="#F6F6F6" opacity="1.000000" stroke="none" 
	d="
M593.137024,422.997620 
	C591.879578,421.322540 591.088440,419.649445 590.001770,417.351562 
	C598.237488,417.351562 605.412720,417.351562 612.796509,417.351562 
	C612.796509,419.095764 612.796509,420.828003 612.796509,422.938354 
	C610.275818,422.938354 607.857117,422.938354 605.093872,422.938354 
	C605.093872,431.691132 605.093872,440.082245 605.093872,448.733215 
	C602.679016,448.733215 600.613953,448.733215 598.178284,448.733215 
	C598.178284,440.413635 598.178284,432.022308 598.178284,423.270813 
	C596.429565,423.167145 595.016418,423.083344 593.137024,422.997620 
z"/>
<path fill="#F6F6F6" opacity="1.000000" stroke="none" 
	d="
M692.999634,439.825348 
	C693.940796,441.205658 694.790955,442.722260 695.840881,442.876221 
	C698.407593,443.252625 701.066589,442.999054 703.840088,442.999054 
	C703.840088,445.064667 703.840088,446.691803 703.840088,448.660095 
	C698.196533,448.660095 692.447510,448.660095 686.347412,448.660095 
	C686.347412,438.372253 686.347412,427.844208 686.347412,417.156433 
	C688.412109,417.156433 690.372925,417.156433 692.999573,417.156433 
	C692.999573,424.481995 692.999573,431.911865 692.999634,439.825348 
z"/>
<path fill="#F6F6F6" opacity="1.000000" stroke="none" 
	d="
M507.002197,419.235779 
	C509.092621,417.965393 511.181396,417.173462 513.784302,416.186584 
	C513.784302,427.704529 513.784302,438.067902 513.784302,448.716461 
	C511.706329,448.716461 509.645508,448.716461 507.000488,448.716461 
	C507.000488,439.134369 507.000488,429.424316 507.002197,419.235779 
z"/>
<path fill="#F6F6F6" opacity="1.000000" stroke="none" 
	d="
M677.972900,448.999878 
	C675.782898,448.955566 673.892151,449.609467 673.942383,446.527283 
	C674.101013,436.802002 674.000854,427.072449 674.000854,417.192749 
	C676.486023,417.192749 678.545593,417.192749 680.998535,417.192749 
	C680.998535,427.112061 681.059937,436.844940 680.887878,446.573639 
	C680.873352,447.396454 679.296875,448.191650 677.972900,448.999878 
z"/>
<path fill="#FF1A34" opacity="1.000000" stroke="none" 
	d="
M222.593597,219.141556 
	C222.969467,273.237732 222.983032,327.578400 222.993652,382.376526 
	C222.660614,381.689941 222.042801,380.546112 222.041794,379.401764 
	C221.995071,326.720276 222.001343,274.038757 222.012512,221.357224 
	C222.012650,220.700150 222.155212,220.043106 222.593597,219.141556 
z"/>
</svg>