<svg version="1.0" xmlns="http://www.w3.org/2000/svg"
 width="300.000000pt" height="300.000000pt" viewBox="0 0 300.000000 300.000000"
 preserveAspectRatio="xMidYMid meet">
<metadata>
Created by potrace 1.10, written by Peter Selinger 2001-2011
</metadata>
<g transform="translate(0.000000,300.000000) scale(0.100000,-0.100000)"
fill="#000000">
<path stroke="#E3DDA4" stroke-width="30" d="M935 2938 c247 -594 555 -1342 555 -1349 0 -18 18 -8 24 14 3 12 131
323 285 692 153 369 277 672 275 674 -2 2 -9 -1 -16 -6 -27 -22 -198 -84 -304
-110 -94 -24 -129 -27 -254 -27 -124 0 -160 4 -251 26 -103 26 -284 91 -303
109 -20 18 -25 8 -11 -23z m285 -101 c107 -28 127 -31 280 -31 153 0 173 3
280 31 63 18 147 45 187 61 l72 30 -15 -37 c-37 -85 -420 -1007 -467 -1123
-29 -70 -54 -128 -57 -128 -3 0 -45 98 -94 218 -49 119 -108 262 -131 317 -34
80 -242 581 -300 721 l-13 31 72 -29 c39 -16 123 -43 186 -61z"/>
<path stroke="#E3DDA4" stroke-width="30" d="M852 2902 c-19 -62 -108 -237 -161 -315 -68 -102 -143 -181 -232
-247 -86 -64 -251 -152 -349 -186 -50 -18 -60 -24 -45 -30 11 -4 218 -89 460
-189 242 -101 528 -219 635 -263 107 -44 216 -89 242 -101 l46 -20 -15 37
c-169 404 -553 1336 -553 1343 0 23 -18 5 -28 -29z m201 -447 c141 -342 331
-799 354 -854 5 -10 2 -13 -8 -8 -242 102 -1234 513 -1259 522 l-35 13 45 18
c72 28 209 102 285 152 167 111 310 299 414 542 15 33 26 49 29 40 3 -8 81
-199 175 -425z"/>
<path stroke="#E3DDA4" stroke-width="30" d="M2120 2930 c0 -7 -315 -771 -555 -1347 l-13 -31 149 61 c82 34 394
163 694 287 299 124 545 228 545 231 0 3 -17 11 -38 17 -62 19 -237 108 -315
161 -102 69 -181 143 -249 234 -59 80 -167 284 -189 357 -11 36 -29 55 -29 30z
m20 -56 c0 -26 94 -213 151 -299 118 -178 301 -318 564 -430 26 -11 35 -19 25
-23 -13 -4 -241 -99 -1179 -488 -58 -24 -106 -42 -108 -41 -1 2 62 158 141
347 331 797 386 930 386 940 0 5 5 10 10 10 6 0 10 -7 10 -16z"/>
<path stroke="#E3DDA4" stroke-width="30" d="M30 2071 c0 -4 4 -11 9 -16 18 -21 73 -170 103 -282 29 -107 32 -132
32 -268 0 -131 -3 -164 -27 -259 -26 -106 -88 -277 -110 -304 -5 -7 -8 -14 -6
-16 2 -2 290 115 639 260 349 145 661 274 693 286 31 13 57 25 57 28 0 3 -71
34 -158 69 -86 35 -344 142 -572 236 -228 95 -470 195 -537 223 -68 28 -123
48 -123 43z m555 -246 c248 -102 523 -216 612 -253 89 -37 163 -69 163 -72 0
-3 -114 -52 -253 -109 -138 -57 -403 -167 -587 -243 -184 -77 -360 -150 -391
-162 l-56 -23 29 71 c16 39 43 123 61 186 28 107 31 127 31 280 0 153 -3 173
-31 280 -18 63 -45 147 -61 186 l-29 72 31 -13 c17 -7 234 -97 481 -200z"/>
<path stroke="#E3DDA4" stroke-width="30" d="M2295 1799 c-369 -154 -680 -282 -692 -285 -29 -8 -29 -20 0 -28 12
-3 323 -131 692 -285 369 -153 672 -277 674 -275 2 2 -1 9 -6 16 -21 26 -82
196 -109 303 -25 96 -29 129 -29 255 0 126 4 159 29 255 27 107 88 277 109
303 5 7 8 14 6 16 -2 2 -305 -122 -674 -275z m621 214 c-28 -55 -84 -240 -101
-336 -34 -192 -4 -432 83 -643 l29 -71 -56 23 c-31 12 -252 104 -491 204 -239
99 -504 209 -587 243 -84 34 -153 64 -153 67 0 3 64 31 143 63 78 32 367 152
642 267 275 115 501 209 503 209 1 1 -4 -11 -12 -26z"/>
<path stroke="#E3DDA4" stroke-width="30" d="M1230 1358 c-598 -250 -1151 -478 -1160 -478 -24 0 -7 -18 28 -28 62
-19 237 -108 315 -161 102 -68 181 -143 247 -232 64 -86 152 -251 186 -349 18
-51 24 -60 30 -45 5 15 472 1144 559 1353 8 17 13 32 12 31 -1 0 -99 -41 -217
-91z m177 40 c-3 -7 -58 -139 -122 -293 -159 -382 -401 -967 -407 -985 -3 -9
-12 2 -23 30 -33 80 -114 232 -162 299 -62 87 -161 184 -255 249 -70 47 -229
133 -303 163 -21 8 -25 13 -15 16 31 11 1246 515 1260 524 22 12 33 11 27 -3z"/>
<path stroke="#E3DDA4" stroke-width="30" d="M1590 1356 c308 -741 530 -1279 530 -1287 0 -23 18 -5 28 29 18 60
99 219 156 306 70 107 144 187 239 258 80 59 284 167 357 189 22 7 40 15 40
18 0 5 -348 150 -1251 522 l-137 57 38 -92z m210 -31 c383 -160 1066 -442
1080 -448 9 -3 -6 -14 -40 -28 -342 -143 -542 -344 -689 -689 l-23 -54 -16 39
c-11 29 -475 1148 -519 1254 -5 10 -2 13 8 9 8 -4 97 -41 199 -83z"/>
<path stroke="#E3DDA4" stroke-width="30" d="M1486 1398 c-3 -13 -131 -324 -285 -693 -153 -369 -277 -672 -275
-674 2 -2 9 1 16 6 25 20 195 81 303 109 96 25 128 29 255 29 126 0 159 -4
255 -29 107 -27 277 -88 303 -109 7 -5 14 -8 16 -6 2 2 -122 305 -275 674
-154 369 -282 680 -285 693 -3 12 -10 22 -14 22 -4 0 -11 -10 -14 -22z m229
-545 c116 -279 235 -568 266 -643 l57 -137 -72 29 c-39 16 -123 43 -186 61
-107 28 -127 31 -280 31 -153 0 -173 -3 -280 -31 -63 -18 -147 -45 -186 -61
l-71 -28 62 150 c35 83 118 284 185 446 67 162 139 336 160 385 20 50 57 138
81 197 24 59 46 108 49 108 3 0 100 -228 215 -507z"/>
</g>
</svg>
